<mxfile host="app.diagrams.net" modified="2021-06-11T08:49:18.568Z" agent="5.0 (Macintosh; Intel Mac OS X 10_15_7) AppleWebKit/537.36 (KHTML, like Gecko) Chrome/91.0.4472.77 Safari/537.36" etag="ge4DMUq-V4hBAEt8LmUu" version="14.7.7" type="github">
  <diagram id="m2fylWRFHes_s0nzntOt" name="第 1 页">
    <mxGraphModel dx="2066" dy="1072" grid="1" gridSize="10" guides="1" tooltips="1" connect="1" arrows="1" fold="1" page="1" pageScale="1" pageWidth="827" pageHeight="1169" math="0" shadow="0">
      <root>
        <mxCell id="0" />
        <mxCell id="1" parent="0" />
        <mxCell id="t1wHoJqtYWH4TyQafbp8-1" style="edgeStyle=orthogonalEdgeStyle;rounded=0;orthogonalLoop=1;jettySize=auto;html=1;entryX=0.5;entryY=0;entryDx=0;entryDy=0;entryPerimeter=0;" edge="1" parent="1" source="aV2Q0CLAXovtnk-0JnNG-1" target="aV2Q0CLAXovtnk-0JnNG-4">
          <mxGeometry relative="1" as="geometry" />
        </mxCell>
        <mxCell id="aV2Q0CLAXovtnk-0JnNG-1" value="&lt;font style=&quot;font-size: 18px&quot;&gt;开始&lt;/font&gt;" style="strokeWidth=2;html=1;shape=mxgraph.flowchart.terminator;whiteSpace=wrap;" parent="1" vertex="1">
          <mxGeometry x="500" y="60" width="110" height="50" as="geometry" />
        </mxCell>
        <mxCell id="aV2Q0CLAXovtnk-0JnNG-2" value="查询是否有缓存" style="rounded=0;whiteSpace=wrap;html=1;" parent="1" vertex="1">
          <mxGeometry x="450" y="430" width="120" height="60" as="geometry" />
        </mxCell>
        <mxCell id="aV2Q0CLAXovtnk-0JnNG-3" value="proxy 服务" style="text;html=1;strokeColor=none;fillColor=none;align=center;verticalAlign=middle;whiteSpace=wrap;rounded=0;" parent="1" vertex="1">
          <mxGeometry x="510" y="30" width="90" height="20" as="geometry" />
        </mxCell>
        <mxCell id="aV2Q0CLAXovtnk-0JnNG-5" value="是" style="edgeStyle=orthogonalEdgeStyle;rounded=0;orthogonalLoop=1;jettySize=auto;html=1;entryX=0.5;entryY=0;entryDx=0;entryDy=0;entryPerimeter=0;" parent="1" source="aV2Q0CLAXovtnk-0JnNG-4" edge="1" target="aV2Q0CLAXovtnk-0JnNG-6">
          <mxGeometry relative="1" as="geometry">
            <mxPoint x="135" y="320" as="targetPoint" />
            <Array as="points" />
          </mxGeometry>
        </mxCell>
        <mxCell id="t1wHoJqtYWH4TyQafbp8-5" value="否" style="edgeStyle=orthogonalEdgeStyle;rounded=0;orthogonalLoop=1;jettySize=auto;html=1;exitX=1;exitY=0.5;exitDx=0;exitDy=0;exitPerimeter=0;entryX=0.5;entryY=0;entryDx=0;entryDy=0;" edge="1" parent="1" source="aV2Q0CLAXovtnk-0JnNG-4" target="t1wHoJqtYWH4TyQafbp8-6">
          <mxGeometry relative="1" as="geometry">
            <mxPoint x="300" y="185" as="targetPoint" />
            <mxPoint x="640" y="175" as="sourcePoint" />
            <Array as="points">
              <mxPoint x="758" y="175" />
            </Array>
          </mxGeometry>
        </mxCell>
        <mxCell id="aV2Q0CLAXovtnk-0JnNG-4" value="该函数是否有缓存" style="strokeWidth=2;html=1;shape=mxgraph.flowchart.decision;whiteSpace=wrap;" parent="1" vertex="1">
          <mxGeometry x="475" y="130" width="160" height="90" as="geometry" />
        </mxCell>
        <mxCell id="t1wHoJqtYWH4TyQafbp8-2" value="是" style="edgeStyle=orthogonalEdgeStyle;rounded=0;orthogonalLoop=1;jettySize=auto;html=1;entryX=0.5;entryY=0;entryDx=0;entryDy=0;entryPerimeter=0;" edge="1" parent="1" source="aV2Q0CLAXovtnk-0JnNG-6" target="t1wHoJqtYWH4TyQafbp8-3">
          <mxGeometry relative="1" as="geometry">
            <mxPoint x="140" y="530" as="targetPoint" />
            <Array as="points" />
          </mxGeometry>
        </mxCell>
        <mxCell id="aV2Q0CLAXovtnk-0JnNG-6" value="&amp;nbsp; &amp;nbsp;比对缓存时间与代码最后的生成时间是否一致" style="strokeWidth=2;html=1;shape=mxgraph.flowchart.decision;whiteSpace=wrap;align=center;" parent="1" vertex="1">
          <mxGeometry x="250" y="230" width="170" height="110" as="geometry" />
        </mxCell>
        <mxCell id="t1wHoJqtYWH4TyQafbp8-3" value="&lt;font style=&quot;font-size: 18px&quot;&gt;返回结果&lt;/font&gt;" style="strokeWidth=2;html=1;shape=mxgraph.flowchart.terminator;whiteSpace=wrap;" vertex="1" parent="1">
          <mxGeometry x="85" y="710" width="100" height="60" as="geometry" />
        </mxCell>
        <mxCell id="t1wHoJqtYWH4TyQafbp8-6" value="储存目录下是否存在该函数" style="rhombus;whiteSpace=wrap;html=1;strokeWidth=2;" vertex="1" parent="1">
          <mxGeometry x="680" y="240" width="156" height="90" as="geometry" />
        </mxCell>
      </root>
    </mxGraphModel>
  </diagram>
</mxfile>
